<?xml version="1.0" encoding="utf-8"?>
<!-- Generator: Adobe Illustrator 23.0.1, SVG Export Plug-In . SVG Version: 6.00 Build 0)  -->
<svg version="1.1" id="Layer_1" xmlns="http://www.w3.org/2000/svg" xmlns:xlink="http://www.w3.org/1999/xlink" x="0px" y="0px"
	 viewBox="0 0 48 48" style="enable-background:new 0 0 48 48;" xml:space="preserve">
<style type="text/css">
	.st0{fill:#F4C20D;}
</style>
<path class="st0" d="M5.2,40.5c-3-2.9-4.3-4.7-4.9-9.4c-0.3-2.6-0.4-6-0.4-11c0-3.9,0-6.9,0.2-9.1c0.4-5.5,1.5-6.4,4.4-6.4
	c2.5,0,3.5,1,4.1,5.8c0.2,2,0.4,4.6,0.5,8.2c0.1,3.7,0.3,6.3,0.6,8.2c0.6,4.4,1.8,5,4.9,5c2.3,0,3.5-1.4,4-6c0.2-2,0.3-4.7,0.3-8.2
	c0-3.6,0.1-6.2,0.4-8.1c0.6-3.8,2-4.8,5.2-4.8c2.5,0,3.7,0.9,4.2,4.8c0.2,1.8,0.3,4.2,0.3,7.4c0,3.9,0.1,6.8,0.3,9
	c0.6,5,1.9,6.2,4.9,5.9c2.8-0.3,3.9-1.3,4.4-6.3c0.2-2.1,0.3-4.9,0.3-8.8c0-3.2,0.1-5.5,0.4-7.3c0.5-3.7,1.7-4.7,4.2-4.7
	c2.8,0,3.9,0.9,4.3,6.4c0.2,2.2,0.2,5.1,0.2,9c0,5-0.1,8.4-0.4,11c-0.5,4.7-1.8,6.5-4.9,9.4c-2.5,2.4-3.9,2.9-8.4,2.9
	c-4.1,0-5.8-0.5-7.1-2.1c-0.9-1.2-2.4-2.1-3.3-2.1c-0.9,0-2.3,0.9-3.3,2.1c-1.3,1.6-3,2.1-7.1,2.1C9.2,43.4,7.8,42.9,5.2,40.5"/>
</svg>
