<svg width="48" height="48" enable-background="new 0 0 200 69" version="1.1" viewBox="0 0 48 48" xmlns="http://www.w3.org/2000/svg"><g transform="translate(-31.96 26.363)" fill="#01ff70"><g transform="matrix(1.9364 0 0 1.9349 -29.928 -23.296)" fill="#01ff70"><path d="m31.96 20.108c0.819-0.503 5.232-2.849 12.354 0.091 7.325 3.022 11.87 0.397 12.434 0.04-1.771-2.911-3.876-5.445-6.206-7.148 0.156-0.043 0.314-0.086 0.481-0.135 3.088-0.894 3.872-3.508 4.038-5.747 0.186-2.54 0.315-2.579 0.867-4.864 0.53-2.194-0.061-2.633-0.605-2.19-0.293 0.238-2.846 0.828-4.36 2.008-2.444 1.908-3.951 5.534-4.634 7.539-0.013 0.031-0.105 0.31-0.136 0.406-0.318 0.768-0.953 0.766-0.953 0.766-0.308-0.034-0.616-0.051-0.927-0.051-0.277 0-0.553 0.015-0.829 0.041-6e-3 1e-3 -9e-3 0-0.016 0-0.81 0.12-1.256-0.87-1.349-1.105-0.947-2.72-3.494-8.082-9.22-9.524 0 0-1.04-0.796-0.723 0.551 0.302 1.287 0.925 2.588 0.787 4.481-0.063 0.874-0.605 5.354 3.512 7.685 0.391 0.222 0.738 0.408 1.051 0.564-2.071 1.66-3.954 3.97-5.566 6.592z" fill="#01ff70"/></g></g></svg>
