<svg version="1.1" viewBox="0 0 48 48" xmlns="http://www.w3.org/2000/svg"><path d="m0 41.989c1.5859-0.97402 10.131-5.5169 23.923 0.17622 14.184 5.8519 22.985 0.76876 24.077 0.07746-3.4294-5.6369-7.5056-10.544-12.017-13.842 0.30208-0.08327 0.60804-0.16653 0.93142-0.26142 5.9797-1.7312 7.4978-6.793 7.8193-11.129 0.36017-4.9185 0.60997-4.994 1.6789-9.4188 1.0263-4.2485-0.11812-5.0986-1.1715-4.2408-0.56737 0.46087-5.5111 1.6034-8.4428 3.8883-4.7326 3.6947-7.6508 10.716-8.9734 14.599-0.02517 0.06003-0.20332 0.60029-0.26335 0.78619-0.61578 1.4872-1.8454 1.4833-1.8454 1.4833-0.59642-0.06584-1.1928-0.09876-1.7951-0.09876-0.53639 0-1.0708 0.02905-1.6053 0.07939-0.01162 0.0019-0.01743 0-0.03098 0-1.5685 0.23237-2.4321-1.6847-2.6122-2.1397-1.8338-5.2671-6.7659-15.65-17.854-18.442 0 0-2.0139-1.5414-1.4 1.067 0.5848 2.4922 1.7912 5.0115 1.524 8.6771-0.12199 1.6924-1.1715 10.368 6.8007 14.881 0.75714 0.42988 1.4291 0.79006 2.0352 1.0921-4.0103 3.2145-7.6566 7.6876-10.778 12.765z" fill="rgb(249,249,250)" opacity="0.8"/></svg>
