<svg xmlns="http://www.w3.org/2000/svg" width="48" height="48" viewBox="0 0 48 48"><path d="M11.414 46.71c-.315-.858-.424-2.654-.243-3.99.274-2.016.93-2.432 3.83-2.432 3.333 0 3.5.175 3.5 3.663 0 3.37-.26 3.69-3.257 3.992-2.184.22-3.445-.186-3.83-1.232m20 0c-.314-.858-.423-2.654-.242-3.99.274-2.016.93-2.432 3.83-2.432 3.333 0 3.5.175 3.5 3.663 0 3.37-.26 3.69-3.257 3.992-2.184.22-3.445-.186-3.83-1.232M5.24 35.84C2.195 32.954.9 31.105.362 26.45.065 23.865 0 20.42 0 15.45c0-3.918.044-6.86.203-9.064C.597.92 1.697 0 4.578 0 7.054 0 8.105.982 8.68 5.802c.24 1.995.396 4.647.54 8.16.148 3.654.3 6.308.567 8.232.608 4.363 1.813 4.975 4.928 4.998 2.317.016 3.477-1.445 3.973-6.016.223-2.05.312-4.725.312-8.173 0-3.606.097-6.24.398-8.15.605-3.84 2.033-4.77 5.152-4.82 2.533-.04 3.684.91 4.158 4.78.217 1.776.292 4.168.292 7.362 0 3.863.088 6.793.334 8.987.555 4.96 1.915 6.153 4.876 5.85 2.813-.287 3.923-1.255 4.38-6.276.193-2.115.27-4.95.31-8.754.034-3.17.136-5.536.38-7.29C39.802.947 40.972 0 43.5 0c2.822 0 3.908.95 4.298 6.424.157 2.2.202 5.132.202 9.028 0 4.967-.065 8.414-.363 10.997-.537 4.654-1.833 6.503-4.876 9.39-2.516 2.39-3.944 2.88-8.405 2.88-4.137 0-5.77-.483-7.087-2.094-.942-1.15-2.412-2.093-3.268-2.093-.856 0-2.326.942-3.268 2.093-1.318 1.61-2.95 2.093-7.087 2.093-4.46 0-5.89-.49-8.406-2.88" fill="#f4c20d"/></svg>
